<svg width="21" height="20" viewBox="0 0 21 20" fill="none" xmlns="http://www.w3.org/2000/svg">
<path d="M8.69948 1.27141C9.50417 -0.423802 11.8292 -0.423805 12.6339 1.27141L14.0246 4.20118C14.3441 4.87435 14.9618 5.34094 15.6763 5.44888L18.786 5.91869C20.5853 6.19053 21.3038 8.48954 20.0018 9.80908L17.7516 12.0896C17.2346 12.6136 16.9986 13.3685 17.1207 14.1084L17.6519 17.3285C17.9592 19.1918 16.0783 20.6126 14.4689 19.7329L11.6875 18.2126C11.0484 17.8633 10.2849 17.8633 9.64584 18.2126L6.86444 19.7329C5.25506 20.6126 3.37409 19.1918 3.68146 17.3286L4.21266 14.1084C4.33471 13.3685 4.09878 12.6136 3.58175 12.0896L1.33155 9.80908C0.0295379 8.48954 0.748 6.19053 2.54733 5.91869L5.65704 5.44888C6.37156 5.34094 6.98924 4.87435 7.30878 4.20118L8.69948 1.27141Z" fill="#FCDB0A"/>
</svg>
